<?xml version="1.0" encoding="UTF-8"?>
<svg id="Ebene_2" data-name="Ebene 2" xmlns="http://www.w3.org/2000/svg" viewBox="0 0 2299 628">
  <defs>
    <style>
      .cls-1 {
        fill: none;
      }

      .cls-2, .cls-3 {
        fill: #fff;
      }

      .cls-2, .cls-4 {
        fill-rule: evenodd;
      }

      .cls-5 {
        isolation: isolate;
      }

      .cls-4 {
        fill: #292929;
      }
    </style>
  </defs>
  <g id="Ebene_1_Kopie" data-name="Ebene 1 Kopie">
    <rect class="cls-1" width="2299" height="628"/>
    <path class="cls-4" d="M0,55.26C0,24.74,24.74,0,55.26,0h2188.48c30.52,0,55.26,24.74,55.26,55.26v517.48c0,30.52-24.74,55.26-55.26,55.26H55.26c-30.52,0-55.26-24.74-55.26-55.26V55.26Z"/>
    <g class="cls-5">
      <path class="cls-3" d="M289.91,308v-106.95h69.48v16.15h-50.32v28.86h46.58v15.93h-46.58v29.86h50.6v16.15h-69.77Z"/>
      <path class="cls-3" d="M371.73,308l31.22-48.45-.07,14.5-29.57-46.3h20.53l8.18,13.64c2.39,4.07,4.52,8.04,6.39,11.92s3.76,7.63,5.67,11.27h-7.75c2.01-3.59,3.91-7.33,5.71-11.23,1.79-3.9,3.91-7.88,6.35-11.95l8.47-13.64h20.1l-30,46.58v-14.14l31.22,47.8h-20.38l-9.91-16.08c-2.39-4.07-4.53-8.01-6.42-11.84-1.89-3.83-3.79-7.49-5.71-10.98h7.75c-1.91,3.49-3.74,7.15-5.49,10.98-1.75,3.83-3.82,7.78-6.21,11.84l-9.91,16.08h-20.17Z"/>
      <path class="cls-3" d="M461.67,338v-110.25h18.23v13.28h1.22c.96-1.91,2.32-3.97,4.09-6.17,1.77-2.2,4.17-4.1,7.21-5.71,3.04-1.6,6.93-2.4,11.66-2.4,6.22,0,11.82,1.58,16.8,4.74,4.98,3.16,8.94,7.81,11.88,13.96,2.94,6.15,4.41,13.67,4.41,22.57s-1.44,16.29-4.31,22.47-6.81,10.87-11.81,14.1c-5,3.23-10.68,4.84-17.05,4.84-4.55,0-8.35-.78-11.41-2.33-3.06-1.55-5.5-3.43-7.32-5.63-1.82-2.2-3.21-4.26-4.16-6.17h-.79v42.71h-18.66ZM498.99,294.08c4.16,0,7.66-1.14,10.48-3.41,2.82-2.27,4.95-5.38,6.39-9.33,1.44-3.95,2.15-8.41,2.15-13.39s-.71-9.41-2.12-13.31c-1.41-3.9-3.53-6.96-6.35-9.19-2.82-2.23-6.34-3.34-10.55-3.34s-7.58,1.08-10.41,3.23c-2.82,2.15-4.96,5.16-6.42,9.01-1.46,3.85-2.19,8.39-2.19,13.6s.73,9.79,2.19,13.71c1.46,3.92,3.61,6.97,6.46,9.15,2.85,2.18,6.3,3.27,10.37,3.27Z"/>
      <path class="cls-3" d="M572.06,201.05v106.95h-18.66v-106.95h18.66Z"/>
      <path class="cls-3" d="M626.69,309.65c-7.8,0-14.57-1.73-20.31-5.2-5.74-3.47-10.18-8.3-13.31-14.5-3.13-6.2-4.7-13.41-4.7-21.64s1.57-15.61,4.7-21.86c3.13-6.25,7.57-11.09,13.31-14.54s12.51-5.17,20.31-5.17,14.64,1.72,20.38,5.17,10.18,8.29,13.31,14.54c3.13,6.24,4.7,13.53,4.7,21.86s-1.57,15.45-4.7,21.64c-3.13,6.2-7.57,11.03-13.31,14.5-5.74,3.47-12.54,5.2-20.38,5.2ZM626.69,294.51c4.35,0,7.98-1.17,10.87-3.52,2.89-2.34,5.05-5.5,6.46-9.47,1.41-3.97,2.12-8.4,2.12-13.28s-.71-9.38-2.12-13.35c-1.41-3.97-3.57-7.13-6.46-9.47-2.9-2.34-6.52-3.52-10.87-3.52s-7.96,1.17-10.8,3.52c-2.85,2.34-4.98,5.49-6.39,9.44-1.41,3.95-2.12,8.41-2.12,13.39s.71,9.31,2.12,13.28c1.41,3.97,3.54,7.13,6.39,9.47,2.85,2.35,6.45,3.52,10.8,3.52Z"/>
      <path class="cls-3" d="M681.38,308v-80.25h18.09v13.42h.86c1.44-4.64,3.95-8.22,7.54-10.73,3.59-2.51,7.68-3.77,12.27-3.77,1.05,0,2.23.05,3.52.14,1.29.1,2.39.21,3.3.36v17.16c-.77-.24-2.01-.46-3.73-.65-1.72-.19-3.42-.29-5.1-.29-3.45,0-6.54.74-9.29,2.22-2.75,1.48-4.91,3.53-6.46,6.14-1.56,2.61-2.33,5.61-2.33,9.01v47.23h-18.66Z"/>
      <path class="cls-3" d="M771.96,309.65c-8.09,0-15.04-1.7-20.85-5.1-5.81-3.4-10.29-8.18-13.42-14.36-3.13-6.17-4.7-13.45-4.7-21.82s1.54-15.53,4.63-21.75c3.09-6.22,7.46-11.09,13.14-14.61,5.67-3.52,12.33-5.28,19.99-5.28,4.88,0,9.53.79,13.96,2.37,4.43,1.58,8.35,4.02,11.77,7.32,3.42,3.3,6.1,7.5,8.04,12.6,1.94,5.1,2.91,11.16,2.91,18.2v5.89h-65.6v-12.7h56.35l-8.76,3.73c0-4.5-.69-8.46-2.08-11.88-1.39-3.42-3.46-6.09-6.21-8-2.75-1.91-6.18-2.87-10.3-2.87s-7.61.97-10.48,2.91c-2.87,1.94-5.06,4.52-6.57,7.75-1.51,3.23-2.26,6.83-2.26,10.8v8.76c0,5.07.86,9.36,2.58,12.85,1.72,3.49,4.14,6.13,7.25,7.9,3.11,1.77,6.72,2.66,10.84,2.66,2.73,0,5.2-.39,7.43-1.18,2.22-.79,4.15-1.96,5.78-3.52,1.63-1.55,2.85-3.46,3.66-5.71l17.16,3.52c-1.29,4.31-3.49,8.08-6.6,11.31-3.11,3.23-7,5.74-11.66,7.54-4.67,1.79-9.99,2.69-15.97,2.69Z"/>
      <path class="cls-3" d="M898.87,309.65c-8.28,0-15.47-1.29-21.57-3.88-6.1-2.58-10.87-6.34-14.32-11.27-3.45-4.93-5.31-10.91-5.6-17.94h18.88c.33,3.73,1.51,6.84,3.52,9.33,2.01,2.49,4.67,4.34,7.97,5.56,3.3,1.22,6.96,1.83,10.98,1.83s7.93-.65,11.16-1.94c3.23-1.29,5.75-3.1,7.57-5.42,1.82-2.32,2.73-5.01,2.73-8.08,0-2.77-.8-5.07-2.4-6.89-1.6-1.82-3.85-3.36-6.75-4.63-2.9-1.27-6.28-2.38-10.16-3.34l-12.13-3.16c-8.95-2.3-15.92-5.77-20.92-10.41-5-4.64-7.5-10.74-7.5-18.3,0-6.32,1.7-11.84,5.1-16.58s8.04-8.41,13.93-11.02c5.88-2.61,12.56-3.91,20.03-3.91s14.28,1.32,20.03,3.95,10.23,6.27,13.46,10.91c3.23,4.64,4.92,9.93,5.06,15.86h-18.59c-.48-4.59-2.52-8.15-6.14-10.66-3.61-2.51-8.32-3.77-14.1-3.77-4.02,0-7.48.61-10.37,1.83-2.9,1.22-5.12,2.88-6.67,4.99-1.56,2.11-2.33,4.52-2.33,7.25,0,2.97.92,5.41,2.76,7.32,1.84,1.92,4.16,3.45,6.96,4.59,2.8,1.15,5.63,2.08,8.51,2.8l9.98,2.58c3.97.96,7.82,2.23,11.56,3.8,3.73,1.58,7.09,3.58,10.08,5.99,2.99,2.42,5.37,5.35,7.14,8.79,1.77,3.45,2.66,7.49,2.66,12.13,0,6.27-1.6,11.78-4.81,16.54-3.21,4.76-7.82,8.47-13.85,11.12-6.03,2.66-13.3,3.98-21.82,3.98Z"/>
      <path class="cls-3" d="M965.4,216.41c-2.97,0-5.52-1-7.64-3.01-2.13-2.01-3.19-4.4-3.19-7.18s1.06-5.3,3.19-7.29c2.13-1.99,4.68-2.98,7.64-2.98s5.59.99,7.72,2.98c2.13,1.99,3.19,4.39,3.19,7.21s-1.07,5.24-3.19,7.25c-2.13,2.01-4.7,3.01-7.72,3.01ZM956.07,308v-80.25h18.66v80.25h-18.66Z"/>
      <path class="cls-3" d="M1029.14,339.73c-6.41,0-12-.81-16.76-2.44-4.76-1.63-8.66-3.84-11.7-6.64-3.04-2.8-5.23-5.97-6.57-9.51l15.79-5.67c.86,1.48,2.05,3.01,3.55,4.59,1.51,1.58,3.52,2.88,6.03,3.91,2.51,1.03,5.71,1.54,9.58,1.54,5.79,0,10.43-1.35,13.93-4.06,3.49-2.7,5.24-6.93,5.24-12.67v-15.14h-1.58c-.91,1.91-2.25,3.89-4.02,5.92-1.77,2.03-4.15,3.74-7.14,5.13-2.99,1.39-6.81,2.08-11.45,2.08-6.13,0-11.69-1.45-16.69-4.34-5-2.89-8.97-7.24-11.92-13.03-2.94-5.79-4.41-13.04-4.41-21.75s1.48-16.25,4.45-22.32c2.97-6.08,6.95-10.69,11.95-13.85,5-3.16,10.59-4.74,16.76-4.74,4.74,0,8.64.79,11.7,2.37,3.06,1.58,5.5,3.48,7.32,5.71,1.82,2.22,3.21,4.29,4.16,6.21h1v-13.28h18.3v80.46c0,7.13-1.63,13.03-4.88,17.69-3.25,4.67-7.7,8.13-13.35,10.41-5.65,2.27-12.08,3.41-19.31,3.41ZM1029.29,292.07c4.07,0,7.51-.97,10.34-2.91,2.82-1.94,4.98-4.75,6.46-8.43,1.48-3.68,2.22-8.09,2.22-13.21s-.73-9.51-2.19-13.31c-1.46-3.8-3.6-6.77-6.42-8.9-2.82-2.13-6.29-3.19-10.41-3.19s-7.74,1.11-10.59,3.34c-2.85,2.22-4.99,5.24-6.42,9.04-1.44,3.8-2.15,8.15-2.15,13.03s.73,9.24,2.19,12.92c1.46,3.69,3.61,6.54,6.46,8.58,2.85,2.04,6.35,3.05,10.52,3.05Z"/>
      <path class="cls-3" d="M1105.15,260.99v47.01h-18.66v-80.25h17.66l.29,19.81h-1.51c2.25-6.94,5.55-12.14,9.91-15.61,4.35-3.47,9.81-5.2,16.37-5.2,5.5,0,10.31,1.17,14.43,3.52,4.12,2.34,7.31,5.77,9.58,10.26,2.27,4.5,3.41,9.98,3.41,16.44v51.03h-18.66v-48.16c0-5.36-1.39-9.57-4.16-12.63-2.78-3.06-6.6-4.59-11.48-4.59-3.3,0-6.25.72-8.83,2.15s-4.62,3.53-6.1,6.28c-1.48,2.75-2.23,6.06-2.23,9.94Z"/>
      <path class="cls-3" d="M1198.82,309.65c-5.07,0-9.64-.92-13.71-2.76-4.07-1.84-7.27-4.56-9.62-8.15-2.35-3.59-3.52-8.01-3.52-13.28,0-4.55.85-8.3,2.55-11.27,1.7-2.97,4-5.34,6.89-7.11,2.89-1.77,6.16-3.11,9.8-4.02,3.64-.91,7.42-1.55,11.34-1.94,4.64-.53,8.42-.98,11.34-1.36,2.92-.38,5.06-1,6.42-1.87,1.36-.86,2.05-2.2,2.05-4.02v-.36c0-2.63-.53-4.87-1.58-6.71-1.05-1.84-2.62-3.25-4.7-4.23-2.08-.98-4.65-1.47-7.72-1.47s-5.8.48-8.07,1.44c-2.27.96-4.13,2.2-5.56,3.73-1.44,1.53-2.49,3.18-3.16,4.95l-17.3-3.52c1.58-4.74,4.02-8.65,7.32-11.74,3.3-3.09,7.24-5.39,11.81-6.93,4.57-1.53,9.53-2.3,14.89-2.3,3.78,0,7.6.44,11.45,1.33,3.85.89,7.38,2.38,10.59,4.49,3.21,2.11,5.79,4.93,7.75,8.47,1.96,3.54,2.94,7.99,2.94,13.35v53.62h-17.87v-11.05h-.72c-1.2,2.25-2.83,4.34-4.92,6.28-2.08,1.94-4.67,3.49-7.75,4.67-3.09,1.17-6.74,1.76-10.95,1.76ZM1203.63,295.8c3.88,0,7.21-.76,10.01-2.3,2.8-1.53,4.98-3.55,6.53-6.07,1.55-2.51,2.33-5.25,2.33-8.22v-9.47c-.62.48-1.66.93-3.12,1.36-1.46.43-3.09.81-4.88,1.15-1.79.33-3.57.62-5.31.86-1.75.24-3.22.43-4.41.57-2.78.38-5.29,1-7.54,1.87-2.25.86-4.01,2.07-5.28,3.62-1.27,1.56-1.9,3.58-1.9,6.06,0,2.3.58,4.22,1.76,5.78,1.17,1.56,2.77,2.74,4.81,3.55,2.03.81,4.37,1.22,7,1.22Z"/>
      <path class="cls-3" d="M1279.5,201.05v106.95h-18.66v-106.95h18.66Z"/>
      <path class="cls-3" d="M1329.67,309.65c-6.17,0-11.63-.89-16.37-2.66-4.74-1.77-8.63-4.35-11.66-7.75-3.04-3.4-5.01-7.51-5.92-12.35l17.44-3.3c1.1,3.97,3.05,6.93,5.85,8.86,2.8,1.94,6.47,2.91,11.02,2.91s8.24-.92,10.95-2.76c2.7-1.84,4.05-4.13,4.05-6.85,0-2.3-.89-4.2-2.66-5.71-1.77-1.51-4.5-2.67-8.18-3.48l-13.71-2.94c-7.56-1.63-13.21-4.31-16.94-8.04s-5.6-8.54-5.6-14.43c0-4.98,1.36-9.28,4.09-12.92,2.73-3.64,6.52-6.46,11.38-8.47,4.86-2.01,10.49-3.01,16.9-3.01,6.08,0,11.3.86,15.68,2.58,4.38,1.72,7.92,4.13,10.62,7.21,2.7,3.09,4.58,6.71,5.63,10.87l-16.65,3.3c-.91-2.82-2.56-5.2-4.95-7.14-2.39-1.94-5.77-2.91-10.12-2.91-3.97,0-7.29.87-9.94,2.62-2.66,1.75-3.98,3.98-3.98,6.71,0,2.34.89,4.28,2.66,5.81,1.77,1.53,4.69,2.73,8.76,3.59l13.64,2.87c7.61,1.63,13.25,4.24,16.94,7.82,3.68,3.59,5.53,8.21,5.53,13.85,0,5.07-1.46,9.54-4.38,13.39-2.92,3.85-6.97,6.87-12.17,9.04-5.19,2.18-11.16,3.27-17.91,3.27Z"/>
    </g>
    <g class="cls-5">
      <path class="cls-3" d="M295.76,392.07v66.93h-8.54v-66.93h8.54ZM308.11,459h-16.17v-7.55h15.63c5.45,0,9.96-1.04,13.54-3.12,3.58-2.08,6.25-5.07,8.02-8.96,1.77-3.89,2.65-8.55,2.65-13.97s-.88-9.96-2.63-13.81c-1.75-3.85-4.36-6.81-7.82-8.87s-7.78-3.1-12.96-3.1h-16.8v-7.55h17.38c6.53,0,12.11,1.33,16.73,4,4.63,2.67,8.18,6.49,10.65,11.48s3.71,10.94,3.71,17.86-1.24,12.98-3.73,17.99c-2.49,5.02-6.11,8.87-10.87,11.57s-10.54,4.04-17.34,4.04Z"/>
      <path class="cls-3" d="M373.07,460.08c-4.55,0-8.54-1.08-11.97-3.23-3.43-2.16-6.1-5.18-8.02-9.07-1.92-3.89-2.88-8.42-2.88-13.57s.96-9.82,2.88-13.72c1.92-3.91,4.59-6.94,8.02-9.1,3.43-2.16,7.42-3.23,11.97-3.23s8.59,1.08,12.04,3.23c3.44,2.16,6.12,5.19,8.04,9.1,1.92,3.91,2.88,8.48,2.88,13.72s-.96,9.67-2.88,13.57c-1.92,3.89-4.6,6.92-8.04,9.07-3.44,2.16-7.46,3.23-12.04,3.23ZM373.07,452.85c3.38,0,6.17-.87,8.36-2.61,2.19-1.74,3.8-4.02,4.85-6.85,1.05-2.83,1.57-5.89,1.57-9.19s-.52-6.42-1.57-9.28c-1.05-2.86-2.67-5.17-4.85-6.92-2.19-1.75-4.97-2.63-8.36-2.63s-6.11.88-8.27,2.63-3.76,4.05-4.81,6.9c-1.05,2.85-1.57,5.95-1.57,9.3s.52,6.36,1.57,9.19c1.05,2.83,2.65,5.11,4.81,6.85,2.16,1.74,4.91,2.61,8.27,2.61Z"/>
      <path class="cls-3" d="M417.41,459l-15.23-50.22h8.58l6.11,21.92c.84,3,1.74,6.39,2.7,10.17.96,3.79,1.9,8.08,2.83,12.87h-1.39c.9-4.58,1.81-8.77,2.74-12.58.93-3.8,1.83-7.29,2.7-10.47l6.02-21.92h8.62l5.93,21.92c.84,3.08,1.71,6.52,2.63,10.31.91,3.79,1.82,8.03,2.72,12.74h-1.44c.96-4.64,1.91-8.86,2.85-12.65.94-3.79,1.85-7.25,2.72-10.4l6.11-21.92h8.58l-15.23,50.22h-8.04l-6.51-22.73c-.66-2.31-1.3-4.66-1.93-7.05-.63-2.4-1.24-4.85-1.84-7.37-.6-2.52-1.21-5.08-1.84-7.68h1.8c-.6,2.58-1.21,5.13-1.82,7.66-.61,2.53-1.24,5.01-1.86,7.43s-1.27,4.76-1.93,7.01l-6.51,22.73h-8.04Z"/>
      <path class="cls-3" d="M489.51,428.9v30.1h-8.09v-50.22h7.77l.04,12.17h-1.12c1.53-4.64,3.71-7.94,6.54-9.88,2.83-1.95,6.15-2.92,9.95-2.92,3.38,0,6.35.7,8.89,2.09,2.54,1.39,4.53,3.49,5.95,6.29,1.42,2.8,2.13,6.33,2.13,10.58v31.89h-8.09v-31.22c0-3.86-1.01-6.89-3.03-9.07-2.02-2.19-4.78-3.28-8.29-3.28-2.4,0-4.55.52-6.47,1.57-1.92,1.05-3.43,2.58-4.54,4.58-1.11,2.01-1.66,4.45-1.66,7.32Z"/>
      <path class="cls-3" d="M543.86,392.07v66.93h-8.09v-66.93h8.09Z"/>
      <path class="cls-3" d="M578.5,460.08c-4.55,0-8.54-1.08-11.97-3.23-3.43-2.16-6.1-5.18-8.02-9.07-1.92-3.89-2.88-8.42-2.88-13.57s.96-9.82,2.88-13.72c1.92-3.91,4.59-6.94,8.02-9.1,3.43-2.16,7.42-3.23,11.97-3.23s8.59,1.08,12.04,3.23c3.44,2.16,6.12,5.19,8.04,9.1,1.92,3.91,2.88,8.48,2.88,13.72s-.96,9.67-2.88,13.57c-1.92,3.89-4.6,6.92-8.04,9.07-3.44,2.16-7.46,3.23-12.04,3.23ZM578.5,452.85c3.38,0,6.17-.87,8.36-2.61,2.19-1.74,3.8-4.02,4.85-6.85,1.05-2.83,1.57-5.89,1.57-9.19s-.52-6.42-1.57-9.28c-1.05-2.86-2.67-5.17-4.85-6.92-2.19-1.75-4.97-2.63-8.36-2.63s-6.11.88-8.27,2.63-3.76,4.05-4.81,6.9c-1.05,2.85-1.57,5.95-1.57,9.3s.52,6.36,1.57,9.19c1.05,2.83,2.65,5.11,4.81,6.85,2.16,1.74,4.91,2.61,8.27,2.61Z"/>
      <path class="cls-3" d="M628.18,460.17c-3.17,0-6.06-.6-8.65-1.8-2.59-1.2-4.65-2.95-6.18-5.26-1.53-2.31-2.29-5.11-2.29-8.4,0-2.88.57-5.21,1.71-7.01,1.14-1.8,2.66-3.21,4.56-4.25,1.9-1.03,4-1.8,6.31-2.31,2.31-.51,4.63-.91,6.96-1.21,2.99-.39,5.44-.69,7.32-.9,1.89-.21,3.29-.57,4.2-1.08.91-.51,1.37-1.38,1.37-2.61v-.27c0-2.1-.39-3.87-1.17-5.32-.78-1.45-1.95-2.57-3.5-3.35-1.56-.78-3.5-1.17-5.84-1.17s-4.45.38-6.15,1.12c-1.71.75-3.09,1.68-4.16,2.81-1.06,1.12-1.86,2.27-2.4,3.44l-7.77-2.56c1.29-3.05,3.02-5.44,5.21-7.17,2.19-1.72,4.6-2.94,7.23-3.66,2.63-.72,5.24-1.08,7.82-1.08,1.68,0,3.59.2,5.73.61,2.14.4,4.21,1.21,6.2,2.4,1.99,1.2,3.64,2.97,4.94,5.32,1.3,2.35,1.95,5.49,1.95,9.41v33.11h-7.95v-6.83h-.54c-.57,1.17-1.48,2.37-2.74,3.62-1.26,1.24-2.89,2.28-4.9,3.12-2.01.84-4.43,1.26-7.28,1.26ZM629.58,453.03c2.99,0,5.53-.58,7.59-1.75s3.64-2.69,4.72-4.56c1.08-1.87,1.62-3.83,1.62-5.86v-6.96c-.33.39-1.05.74-2.16,1.06-1.11.31-2.37.59-3.8.83-1.42.24-2.8.44-4.13.61-1.33.17-2.39.29-3.17.38-1.95.24-3.77.65-5.46,1.24-1.69.58-3.05,1.44-4.07,2.56-1.02,1.12-1.53,2.64-1.53,4.56,0,1.74.45,3.19,1.35,4.36s2.13,2.05,3.68,2.65c1.56.6,3.34.9,5.35.9Z"/>
      <path class="cls-3" d="M684.6,460.08c-4.16,0-7.85-1.06-11.05-3.19-3.21-2.13-5.71-5.14-7.5-9.03-1.8-3.89-2.7-8.5-2.7-13.84s.91-9.89,2.72-13.77c1.81-3.88,4.32-6.87,7.52-8.96,3.2-2.1,6.89-3.14,11.05-3.14,3.26,0,5.85.54,7.77,1.62,1.92,1.08,3.39,2.3,4.42,3.66,1.03,1.36,1.82,2.49,2.36,3.39h.63v-24.75h8.09v66.93h-7.82v-7.77h-.9c-.54.93-1.34,2.09-2.4,3.48-1.06,1.39-2.56,2.64-4.49,3.73s-4.5,1.64-7.7,1.64ZM685.82,452.85c3.05,0,5.63-.8,7.73-2.4,2.1-1.6,3.68-3.83,4.76-6.67,1.08-2.84,1.62-6.12,1.62-9.84s-.53-6.96-1.59-9.73c-1.06-2.77-2.64-4.93-4.74-6.49-2.1-1.56-4.69-2.34-7.77-2.34s-5.82.82-7.93,2.47c-2.11,1.65-3.69,3.87-4.74,6.67-1.05,2.8-1.57,5.94-1.57,9.41s.53,6.69,1.59,9.55c1.06,2.86,2.66,5.14,4.78,6.83,2.13,1.69,4.75,2.54,7.86,2.54Z"/>
      <path class="cls-3" d="M771.35,408.78v6.92h-29.56v-6.92h29.56ZM751.67,459v-56.92c0-2.9.68-5.33,2.04-7.28,1.36-1.95,3.14-3.41,5.32-4.4,2.19-.99,4.49-1.48,6.92-1.48,1.92,0,3.5.16,4.76.47s2.19.61,2.79.88l-2.25,6.92c-.42-.15-.97-.31-1.64-.49s-1.58-.27-2.72-.27c-2.49,0-4.3.64-5.44,1.91-1.14,1.27-1.71,3.12-1.71,5.55v55.12h-8.09Z"/>
      <path class="cls-3" d="M782.04,459v-50.22h7.82v7.73h.54c.93-2.54,2.58-4.59,4.96-6.13,2.38-1.54,5.07-2.31,8.06-2.31.6,0,1.31.02,2.13.04.82.03,1.47.06,1.95.09v8.13c-.24-.06-.84-.15-1.8-.27-.96-.12-1.98-.18-3.05-.18-2.4,0-4.54.5-6.45,1.5-1.9,1-3.39,2.38-4.47,4.13s-1.62,3.77-1.62,6.04v31.45h-8.09Z"/>
      <path class="cls-3" d="M835.59,460.08c-4.55,0-8.54-1.08-11.97-3.23-3.43-2.16-6.1-5.18-8.02-9.07-1.92-3.89-2.88-8.42-2.88-13.57s.96-9.82,2.88-13.72c1.92-3.91,4.59-6.94,8.02-9.1,3.43-2.16,7.42-3.23,11.97-3.23s8.59,1.08,12.04,3.23c3.44,2.16,6.12,5.19,8.04,9.1,1.92,3.91,2.88,8.48,2.88,13.72s-.96,9.67-2.88,13.57c-1.92,3.89-4.6,6.92-8.04,9.07-3.44,2.16-7.46,3.23-12.04,3.23ZM835.59,452.85c3.38,0,6.17-.87,8.36-2.61,2.19-1.74,3.8-4.02,4.85-6.85,1.05-2.83,1.57-5.89,1.57-9.19s-.52-6.42-1.57-9.28c-1.05-2.86-2.67-5.17-4.85-6.92-2.19-1.75-4.97-2.63-8.36-2.63s-6.11.88-8.27,2.63-3.76,4.05-4.81,6.9c-1.05,2.85-1.57,5.95-1.57,9.3s.52,6.36,1.57,9.19c1.05,2.83,2.65,5.11,4.81,6.85,2.16,1.74,4.91,2.61,8.27,2.61Z"/>
      <path class="cls-3" d="M870.31,459v-50.22h7.86l.04,11.23h-.63c.69-2.72,1.77-4.98,3.26-6.76,1.48-1.78,3.22-3.12,5.21-4.02,1.99-.9,4.07-1.35,6.22-1.35,3.65,0,6.61,1.12,8.87,3.37,2.26,2.25,3.72,5.2,4.38,8.85h-1.08c.6-2.52,1.69-4.69,3.28-6.51,1.59-1.83,3.51-3.23,5.77-4.22,2.26-.99,4.72-1.48,7.39-1.48,2.9,0,5.55.63,7.95,1.89,2.4,1.26,4.3,3.16,5.73,5.71,1.42,2.55,2.13,5.77,2.13,9.66v33.87h-8.09v-33.65c0-3.62-1.02-6.21-3.05-7.77-2.04-1.56-4.4-2.34-7.1-2.34-2.25,0-4.19.47-5.82,1.42-1.63.94-2.89,2.24-3.77,3.89-.88,1.65-1.33,3.53-1.33,5.66v32.79h-8.09v-34.46c0-2.79-.93-5.03-2.79-6.74-1.86-1.71-4.21-2.56-7.05-2.56-1.95,0-3.78.46-5.5,1.37-1.72.91-3.11,2.27-4.16,4.07-1.05,1.8-1.57,4.03-1.57,6.69v31.62h-8.09Z"/>
      <path class="cls-3" d="M1005.12,459.9c-5.96,0-11.19-1.39-15.68-4.18s-8-6.75-10.51-11.88c-2.52-5.14-3.77-11.22-3.77-18.26s1.26-13.21,3.77-18.35c2.52-5.14,5.99-9.1,10.42-11.88,4.43-2.79,9.51-4.18,15.23-4.18,3.53,0,6.83.52,9.91,1.57,3.07,1.05,5.82,2.55,8.24,4.49,2.43,1.95,4.44,4.26,6.04,6.94,1.6,2.68,2.7,5.64,3.3,8.87h-8.8c-.69-2.16-1.6-4.09-2.74-5.79-1.14-1.71-2.49-3.17-4.07-4.4-1.57-1.23-3.35-2.16-5.32-2.81-1.98-.64-4.15-.97-6.51-.97-3.92,0-7.49,1.01-10.69,3.03-3.21,2.02-5.75,5-7.64,8.94-1.89,3.94-2.83,8.78-2.83,14.53s.95,10.5,2.85,14.42c1.9,3.92,4.48,6.9,7.75,8.94,3.26,2.04,6.95,3.05,11.05,3.05,3.77,0,7.1-.8,9.97-2.4,2.88-1.6,5.11-3.88,6.72-6.83,1.6-2.95,2.4-6.43,2.4-10.44l2.56.49h-19.9v-7.46h25.7v7.32c0,5.54-1.18,10.35-3.55,14.42-2.37,4.07-5.61,7.23-9.73,9.46-4.12,2.23-8.84,3.35-14.17,3.35Z"/>
      <path class="cls-3" d="M1049.5,400.56c-1.53,0-2.85-.52-3.95-1.57-1.11-1.05-1.66-2.31-1.66-3.77s.55-2.76,1.66-3.8c1.11-1.03,2.43-1.55,3.95-1.55s2.89.52,4,1.55c1.11,1.03,1.66,2.3,1.66,3.8s-.55,2.73-1.66,3.77c-1.11,1.05-2.44,1.57-4,1.57ZM1045.42,459v-50.22h8.09v50.22h-8.09Z"/>
      <path class="cls-3" d="M1087.46,408.78v6.92h-25.96v-6.92h25.96ZM1069.05,396.83h8.09v49.14c0,2.25.46,3.89,1.37,4.92.91,1.03,2.43,1.55,4.56,1.55.51,0,1.16-.06,1.95-.18.79-.12,1.52-.24,2.18-.36l1.66,6.83c-.84.3-1.79.52-2.85.67-1.06.15-2.12.22-3.17.22-4.34,0-7.73-1.15-10.15-3.44s-3.64-5.49-3.64-9.59v-49.77Z"/>
      <path class="cls-3" d="M1098.78,459v-66.93h8.54v28.93h35.13v-28.93h8.54v66.93h-8.54v-30.46h-35.13v30.46h-8.54Z"/>
      <path class="cls-3" d="M1183.19,459.63c-3.38,0-6.36-.7-8.92-2.09s-4.55-3.5-5.97-6.31c-1.42-2.81-2.13-6.33-2.13-10.56v-31.89h8.09v31.22c0,3.86,1.02,6.89,3.05,9.07,2.04,2.19,4.81,3.28,8.31,3.28,2.4,0,4.54-.52,6.45-1.57,1.9-1.05,3.41-2.58,4.51-4.6,1.11-2.02,1.66-4.45,1.66-7.3v-30.1h8.13v50.22h-7.82v-12.17h1.08c-1.56,4.7-3.77,8.01-6.63,9.93-2.86,1.92-6.13,2.88-9.82,2.88Z"/>
      <path class="cls-3" d="M1243.88,460.08c-3.17,0-5.74-.55-7.68-1.64-1.95-1.09-3.44-2.34-4.49-3.73-1.05-1.39-1.86-2.55-2.43-3.48h-.9v7.77h-7.82v-66.93h8.09v24.75h.63c.57-.9,1.36-2.03,2.38-3.39,1.02-1.36,2.49-2.58,4.4-3.66,1.92-1.08,4.51-1.62,7.77-1.62,4.19,0,7.88,1.05,11.07,3.14,3.19,2.1,5.69,5.08,7.5,8.96,1.81,3.88,2.72,8.47,2.72,13.77s-.9,9.94-2.7,13.84c-1.8,3.89-4.29,6.9-7.48,9.03s-6.88,3.19-11.07,3.19ZM1242.67,452.85c3.14,0,5.77-.85,7.88-2.54,2.11-1.69,3.7-3.97,4.76-6.83,1.06-2.86,1.59-6.04,1.59-9.55s-.52-6.61-1.57-9.41c-1.05-2.8-2.63-5.02-4.74-6.67-2.11-1.65-4.75-2.47-7.93-2.47s-5.68.78-7.77,2.34c-2.1,1.56-3.68,3.72-4.74,6.49-1.06,2.77-1.59,6.01-1.59,9.73s.54,6.99,1.62,9.84c1.08,2.85,2.67,5.07,4.78,6.67,2.11,1.6,4.68,2.4,7.7,2.4Z"/>
    </g>
    <path class="cls-2" d="M1884,149c-92.9,0-168,75.62-168,169.18,0,74.79,48.12,138.09,114.87,160.5,8.35,1.68,11.4-3.64,11.4-8.12,0-3.92-.28-17.37-.28-31.37-46.73,10.08-56.46-20.17-56.46-20.17-7.51-19.61-18.64-24.65-18.64-24.65-15.3-10.36,1.11-10.36,1.11-10.36,16.97,1.12,25.87,17.37,25.87,17.37,15.02,25.77,39.22,18.49,48.95,14.01,1.39-10.93,5.84-18.49,10.57-22.69-37.27-3.92-76.49-18.49-76.49-83.47,0-18.49,6.67-33.61,17.24-45.38-1.67-4.2-7.51-21.57,1.67-44.82,0,0,14.18-4.48,46.17,17.37,13.69-3.7,27.82-5.59,42-5.6,14.18,0,28.64,1.96,42,5.6,31.99-21.85,46.17-17.37,46.17-17.37,9.18,23.25,3.34,40.62,1.67,44.82,10.85,11.76,17.25,26.89,17.25,45.38,0,64.99-39.22,79.27-76.77,83.47,6.12,5.32,11.4,15.4,11.4,31.37,0,22.69-.28,40.9-.28,46.49,0,4.48,3.06,9.81,11.4,8.13,66.75-22.41,114.87-85.71,114.87-160.5.28-93.56-75.1-169.18-167.72-169.18Z"/>
  </g>
</svg>