<svg width="2299" height="628" xmlns="http://www.w3.org/2000/svg" xmlns:xlink="http://www.w3.org/1999/xlink" xml:space="preserve" overflow="hidden"><defs><clipPath id="clip0"><rect x="2420" y="251" width="2299" height="628"/></clipPath></defs><g clip-path="url(#clip0)" transform="translate(-2420 -251)"><path d="M2420 306.258C2420 275.74 2444.74 251 2475.26 251L4663.74 251C4694.26 251 4719 275.74 4719 306.258L4719 823.742C4719 854.26 4694.26 879 4663.74 879L2475.26 879C2444.74 879 2420 854.26 2420 823.742Z" fill="#292929" fill-rule="evenodd"/><text fill="#FFFFFF" font-family="Inter SemiBold,Inter SemiBold_MSFontService,sans-serif" font-weight="600" font-size="147" transform="matrix(1 0 0 1 2699.14 559)">Explore Desktop</text><text fill="#FFFFFF" font-family="Inter SemiBold,Inter SemiBold_MSFontService,sans-serif" font-weight="600" font-size="92" transform="matrix(1 0 0 1 2699.14 710)">Download from GitHub</text><g><g><g><path d="M167.936 0C75.0716 0 0 75.625 0 169.183 0 243.97 48.1009 307.275 114.83 329.68 123.173 331.365 126.228 326.04 126.228 321.561 126.228 317.639 125.953 304.195 125.953 290.187 79.2378 300.272 69.5097 270.019 69.5097 270.019 62.0022 250.412 50.8784 245.372 50.8784 245.372 35.5884 235.008 51.9922 235.008 51.9922 235.008 68.9528 236.129 77.8525 252.374 77.8525 252.374 92.8641 278.142 117.054 270.861 126.785 266.379 128.174 255.454 132.626 247.892 137.352 243.691 100.093 239.769 60.8919 225.204 60.8919 160.218 60.8919 141.732 67.5606 126.607 78.1275 114.843 76.4603 110.643 70.62 93.2731 79.7981 70.0253 79.7981 70.0253 93.9778 65.5428 125.95 87.3916 139.638 83.6883 153.755 81.8043 167.936 81.7884 182.115 81.7884 196.57 83.7513 209.918 87.3916 241.893 65.5428 256.073 70.0253 256.073 70.0253 265.251 93.2731 259.408 110.643 257.74 114.843 268.586 126.607 274.979 141.732 274.979 160.218 274.979 225.204 235.778 239.487 198.241 243.691 204.359 249.013 209.639 259.095 209.639 275.062 209.639 297.749 209.364 315.958 209.364 321.557 209.364 326.04 212.424 331.365 220.763 329.684 287.492 307.271 335.593 243.97 335.593 169.183 335.868 75.625 260.521 0 167.936 0Z" fill="#FFFFFF" fill-rule="evenodd" transform="matrix(1.00037 0 0 1 4136 400)"/></g></g></g></g></svg>